<svg id="Calque_1" data-name="Calque 1" xmlns="http://www.w3.org/2000/svg" xmlns:xlink="http://www.w3.org/1999/xlink" viewBox="0 0 818.36 731.37"><defs><style>.cls-1,.cls-3{fill:none;}.cls-2{clip-path:url(#clip-path);}.cls-3{stroke:#fcb582;stroke-miterlimit:10;stroke-width:2px;}</style><clipPath id="clip-path"><rect class="cls-1" width="818.36" height="731.37"/></clipPath></defs><g class="cls-2"><path class="cls-3" d="M257.81,253.06s30.5-36.26,30.5-40.8,10.17-18.13,15.26-27.19,35.58-22.67,50.84-22.67,20.33,9.07,25.42,9.07,30.5,18.13,40.67,22.66,35.58,18.13,40.67,22.67,61,40.79,66.09,45.32,20.33,13.6,30.5,27.2,10.17,49.86,10.17,58.93-5.08,36.26,5.08,45.33-5.08,58.92-10.16,68-10.17,18.13-40.68,27.19-45.75,18.14-50.83,22.67S435.75,516,425.58,525s-30.5,13.6-45.75,9.06-55.93-9.06-66.1-13.6-40.67-22.66-55.92-36.26S222.22,448,222.22,438.9s0-45.32,5.09-54.39-10.17-31.73-10.17-36.26-5.08-18.13,0-36.27,5.08-27.19,20.34-40.79Zm76.26-63.46s-15.25,18.13-20.34,31.73-25.42,40.79-30.5,45.33-20.33,22.66-20.33,40.79,5.08,36.26,0,68,0,81.59,15.25,95.19,30.5,13.6,50.84,9.07,35.58,4.53,66.09,9.06,45.75,4.54,61,0S496.75,466.1,506.92,457s10.17-18.13,10.17-31.72,0-36.27,5.08-54.4,5.09-45.33-5.08-58.93-30.5-22.66-35.59-27.19-20.33-18.13-35.58-27.2-30.51-22.66-35.59-27.2S390,216.8,384.91,212.26,364.57,185.07,334.07,189.6Zm45.76,149.58s0,4.53-5.09,13.6-15.25,22.66-10.17,27.2,15.26,0,20.34,4.53,12.9,4.73,14.08.1-8.76-19.27-6.34-23.28S390,334.65,379.83,339.18Zm-10.12-83.69s-10.22-2.43-10.22,2.1-5.08,13.6-5.08,27.2,15.25,36.26,5.08,49.86S329,361.85,329,380s5.08,27.19,15.25,27.19,40.67-4.53,50.84,4.54,25.42,18.13,30.5,18.13,15.25-18.13,10.17-36.26-30.51-40.8-30.51-49.87-5.08-27.19-10.16-36.26-15.25-27.19-15.25-36.26S374.84,253.39,369.71,255.49Zm-16.34-43.61s-18.47,16.44-20.15,29.94-11.86,31.64-11.86,40.7,5.08,18.13-5.08,27.2-21.91,41.36-21.12,47.87,3.69,41.43,2.24,48.91-11.56,26.66,1.12,32.93S323.9,457,339.15,452.5s41.3-16.69,51.16-6.08,35.27,24.21,60.69,15.15,50.84-40.8,45.75-63.46-35.05-66.77-40.4-76.45-40.94-36.87-46-45.94S378,237.28,371.28,233.84,357.41,207,353.37,211.88Z"/><path class="cls-3" d="M232.5,76.35S308.7,26.5,359.51,22s116.84,13.6,137.16,27.19,35.57,4.53,101.61,40.78,96.53,40.79,132.09,95.17,25.4,86.1,25.4,86.1,5.08,13.59,10.16,31.72,10.16,58.91,10.16,81.57,5.08,63.44,0,81.56-30.48,68-45.72,81.57-66,36.25-71.13,45.32-121.92,77-137.16,90.63-86.37,22.66-121.93,22.66-106.69-31.72-121.93-31.72S171.54,620.14,156.3,615.61s-76.21-63.45-81.29-77-15.24-49.85-25.4-90.63-10.16-77-10.16-86.1-5.08-99.7,5.08-122.35S75,176,90.25,167s55.88-31.72,66.05-40.78S232.5,76.35,232.5,76.35Z"/><path class="cls-3" d="M318.84,3.79s122-9.06,188,9.07S613.57,58.18,639,71.78s61,31.72,71.14,45.32,55.9,45.32,66.06,86.11,30.49,86.11,30.49,86.11,5.08,31.73,0,63.45,10.16,72.52,10.16,72.52,0,27.19-15.24,45.32-30.49,68-40.65,81.58S705,602,694.88,615.64,644.06,661,608.49,674.56s-76.22,49.85-142.28,54.38-111.8-9.06-172.78-18.13-137.2-58.91-167.69-77-76.22-81.58-81.3-90.65S8.87,461.54,3.79,434.35s0-95.17,0-117.84-10.17-49.85,20.32-99.7,66.06-77.05,81.31-95.18,30.49-45.32,81.3-63.45S278.19-.74,318.84,3.79Z"/></g><g class="cls-2"><path class="cls-3" d="M125.78,239.48s5.08-9.07,20.33-22.66S176.59,176,186.75,171.5s30.49-18.13,40.65-27.19,40.65-22.66,45.73-27.2S303.61,99,329,99s55.89-9.07,61-13.6,25.4,4.53,35.57,4.53,35.56,0,50.81,4.54,61,22.65,71.13,27.19,66,22.66,76.21,40.78,50.81,45.32,55.89,63.45,20.33,45.32,20.33,49.85S705,307.46,705,321.05s10.16,40.79,10.16,45.32,5.08,31.72,0,49.85-15.24,31.72-20.33,45.32,0,31.72-10.16,40.79S644,534.05,639,538.58s-55.89,36.26-61,45.32-55.89,45.32-86.37,49.85a442.27,442.27,0,0,1-66.05,4.53c-10.17,0-76.22-4.53-91.46-9.06s-35.57-9.06-45.73-13.59-30.48-9.07-40.65-13.6-35.56-18.13-40.64-22.66-35.57-36.26-40.65-40.79-30.49-22.66-30.49-27.19S125.78,484.2,120.7,470.6s-15.24-49.85-15.24-63.44S95.3,375.43,95.3,361.84s-10.17-45.32,0-58.92S120.7,271.2,125.78,239.48Zm20.33,154.08s-10.17-40.79-10.17-54.38,5.08-45.32,10.17-54.38,10.16-22.66,20.32-31.73,20.32-22.66,25.4-36.25,20.33-31.73,25.41-36.26,45.73-36.25,61-40.79,20.32-18.12,45.73-18.12,45.73-4.54,61-4.54,35.57,9.07,50.81,9.07,40.65,9.06,55.89,13.59,35.56,9.07,50.81,22.66,30.48,9.07,45.73,31.73,45.72,54.38,50.8,54.38,15.25,4.53,20.33,36.26,10.16,81.57,10.16,95.17-10.16,45.31-15.24,58.91S649.12,457,639,466.07s-25.4,49.85-25.4,68-45.73,27.19-45.73,27.19-66.05,13.6-71.13,18.13S451,597.5,425.56,597.5s-55.89,13.59-66.06,9.06S278.21,574.84,263,570.31s-86.38-40.79-91.46-63.45-20.32-31.72-15.24-45.32S156.27,416.22,146.11,393.56Z"/><path class="cls-3" d="M186.58,402.64s-5.08-22.66-10.17-27.2-10.17-13.6-5.09-31.73,15.26-36.27,20.35-54.41,10.17-40.8,20.34-49.87,40.68-22.67,45.77-40.8,20.34-31.74,35.6-40.81,20.34-9.07,35.59-9.07h55.94c10.17,0,30.52,0,50.86,9.07s25.43,27.2,66.11,40.81,55.94,9.06,76.28,49.87S598.5,312,603.59,325.57s10.17,36.27,10.17,54.41-5.09,45.33-10.17,54.4-10.17,31.74-10.17,40.8-15.26,27.21-35.6,40.81S507,552.26,491.71,552.26s-50.86,4.53-66.11,9.07-55.94,9.06-76.29,4.53-20.34-13.6-40.68-18.14-81.37-36.27-86.45-45.33-20.34-18.14-20.34-27.21S201.84,429.85,186.58,402.64Z"/></g><rect class="cls-1" width="818.36" height="731.37"/></svg>